<svg width="375" height="812" viewBox="0 0 375 812" fill="none" xmlns="http://www.w3.org/2000/svg">
<rect width="375" height="812" rx="30" fill="#0D6EFD"/>
<rect opacity="0.35" x="332.833" y="19.8333" width="21" height="10.3333" rx="2.16667" stroke="white"/>
<path opacity="0.4" d="M355.333 23V27C356.138 26.6612 356.661 25.8731 356.661 25C356.661 24.1269 356.138 23.3388 355.333 23Z" fill="white"/>
<rect x="334.333" y="21.3333" width="18" height="7.33333" rx="1.33333" fill="white"/>
<path fill-rule="evenodd" clip-rule="evenodd" d="M319.872 22.2845C322.011 22.2846 324.069 23.1387 325.619 24.6703C325.736 24.7885 325.922 24.787 326.037 24.6669L327.153 23.4966C327.212 23.4357 327.244 23.3532 327.244 23.2673C327.243 23.1815 327.21 23.0994 327.151 23.0392C323.082 18.9869 316.662 18.9869 312.593 23.0392C312.534 23.0993 312.501 23.1814 312.5 23.2673C312.499 23.3531 312.532 23.4356 312.59 23.4966L313.706 24.6669C313.821 24.7872 314.008 24.7887 314.125 24.6703C315.675 23.1386 317.733 22.2845 319.872 22.2845ZM319.872 26.0921C321.048 26.092 322.181 26.5459 323.052 27.3657C323.17 27.4821 323.356 27.4795 323.47 27.36L324.585 26.1897C324.644 26.1283 324.676 26.045 324.676 25.9585C324.675 25.872 324.641 25.7894 324.581 25.7293C321.928 23.1649 317.819 23.1649 315.166 25.7293C315.106 25.7894 315.072 25.872 315.071 25.9586C315.07 26.0451 315.103 26.1284 315.162 26.1897L316.276 27.36C316.391 27.4795 316.577 27.4821 316.694 27.3657C317.565 26.5465 318.698 26.0926 319.872 26.0921ZM322.105 28.6539C322.106 28.7407 322.074 28.8243 322.014 28.8851L320.086 30.9071C320.029 30.9665 319.952 31 319.872 31C319.791 31 319.714 30.9665 319.658 30.9071L317.729 28.8851C317.67 28.8243 317.637 28.7406 317.639 28.6538C317.641 28.567 317.677 28.4849 317.739 28.4267C318.97 27.3444 320.774 27.3444 322.005 28.4267C322.067 28.4849 322.103 28.5671 322.105 28.6539Z" fill="white"/>
<path fill-rule="evenodd" clip-rule="evenodd" d="M305.77 20H304.808C304.277 20 303.847 20.4477 303.847 21V29.6667C303.847 30.219 304.277 30.6667 304.808 30.6667H305.77C306.301 30.6667 306.731 30.219 306.731 29.6667V21C306.731 20.4477 306.301 20 305.77 20ZM300.321 22.3333H301.282C301.813 22.3333 302.244 22.7811 302.244 23.3333V29.6667C302.244 30.219 301.813 30.6667 301.282 30.6667H300.321C299.79 30.6667 299.359 30.219 299.359 29.6667V23.3333C299.359 22.7811 299.79 22.3333 300.321 22.3333ZM296.795 24.6667H295.833C295.302 24.6667 294.872 25.1144 294.872 25.6667V29.6667C294.872 30.219 295.302 30.6667 295.833 30.6667H296.795C297.326 30.6667 297.757 30.219 297.757 29.6667V25.6667C297.757 25.1144 297.326 24.6667 296.795 24.6667ZM292.308 26.6667H291.346C290.815 26.6667 290.385 27.1144 290.385 27.6667V29.6667C290.385 30.219 290.815 30.6667 291.346 30.6667H292.308C292.839 30.6667 293.269 30.219 293.269 29.6667V27.6667C293.269 27.1144 292.839 26.6667 292.308 26.6667Z" fill="white"/>
<path d="M36.7646 18.1675C34.4722 18.1675 32.8389 19.7349 32.8389 21.8809V21.8955C32.8389 23.9023 34.2598 25.3818 36.2886 25.3818C37.7388 25.3818 38.6616 24.6421 39.0498 23.8071H39.1963C39.1963 23.8877 39.189 23.9683 39.189 24.0488C39.1084 26.0703 38.3979 27.7109 36.7207 27.7109C35.7905 27.7109 35.1387 27.2275 34.8604 26.4878L34.8384 26.4146H32.978L32.9927 26.4951C33.3296 28.1138 34.7798 29.2637 36.7207 29.2637C39.3794 29.2637 40.9834 27.1543 40.9834 23.5947V23.5801C40.9834 19.7715 39.0205 18.1675 36.7646 18.1675ZM36.7573 23.9316C35.5562 23.9316 34.6846 23.0527 34.6846 21.8296V21.8149C34.6846 20.6357 35.6147 19.7056 36.7793 19.7056C37.9512 19.7056 38.8667 20.6504 38.8667 21.8589V21.8735C38.8667 23.0674 37.9512 23.9316 36.7573 23.9316ZM44.3086 22.1519C44.9824 22.1519 45.4731 21.6392 45.4731 20.9946C45.4731 20.3428 44.9824 19.8374 44.3086 19.8374C43.6421 19.8374 43.144 20.3428 43.144 20.9946C43.144 21.6392 43.6421 22.1519 44.3086 22.1519ZM44.3086 27.5864C44.9824 27.5864 45.4731 27.0811 45.4731 26.4292C45.4731 25.7773 44.9824 25.272 44.3086 25.272C43.6421 25.272 43.144 25.7773 43.144 26.4292C43.144 27.0811 43.6421 27.5864 44.3086 27.5864ZM52.7607 29H54.5698V26.9712H55.9907V25.4111H54.5698V18.4312H51.8965C50.4609 20.6138 48.9595 23.0454 47.5898 25.4258V26.9712H52.7607V29ZM49.3477 25.4551V25.3452C50.373 23.5508 51.5962 21.5952 52.6802 19.9399H52.79V25.4551H49.3477ZM60.3706 29H62.2603V18.4312H60.3779L57.6167 20.3721V22.1519L60.2461 20.2915H60.3706V29Z" fill="white"/>
<path d="M128.653 418V398.958H121V393.928H142.018V398.958H134.397V418H128.653ZM144.773 418H139.544V403.042H144.408L144.508 405.665C145.105 404.614 145.803 403.85 146.6 403.374C147.408 402.898 148.409 402.66 149.604 402.66H150.02V408.238H149.472H148.891C147.264 408.238 146.168 408.426 145.604 408.803C145.05 409.168 144.773 410.059 144.773 411.476V418ZM162.404 406.844C162.094 406.667 161.796 406.539 161.508 406.462C161.231 406.384 160.954 406.346 160.678 406.346C159.693 406.346 158.863 406.761 158.188 407.591C157.512 408.41 157.175 409.445 157.175 410.695C157.175 411.868 157.468 412.848 158.055 413.634C158.652 414.409 159.377 414.796 160.229 414.796C160.573 414.796 160.921 414.707 161.275 414.53C161.641 414.342 162.017 414.06 162.404 413.684V406.844ZM167.617 403.042V412.389C167.617 413.562 167.639 414.547 167.684 415.344C167.728 416.141 167.794 416.821 167.883 417.386L163.052 418.714L162.587 417.286C161.934 417.773 161.292 418.133 160.661 418.365C160.041 418.598 159.388 418.714 158.702 418.714C156.776 418.714 155.155 417.945 153.838 416.406C152.532 414.868 151.879 412.953 151.879 410.662C151.879 408.249 152.615 406.257 154.087 404.686C155.559 403.114 157.418 402.328 159.665 402.328C160.185 402.328 160.728 402.4 161.292 402.544C161.856 402.688 162.482 402.909 163.168 403.208L167.617 403.042ZM176.848 418.946L169.344 403.042H175.088L177.562 408.753L180.151 403.042H184.949L177.329 418.946H176.848ZM190.743 409.118L197.234 408.919V408.687C197.234 407.901 196.958 407.259 196.404 406.761C195.851 406.252 195.154 405.997 194.312 405.997C193.372 405.997 192.586 406.274 191.955 406.827C191.324 407.369 190.92 408.133 190.743 409.118ZM200.671 412.654L200.09 417.253C199.072 417.74 198.07 418.1 197.085 418.332C196.1 418.564 195.104 418.681 194.097 418.681C191.606 418.681 189.598 417.967 188.07 416.539C186.543 415.1 185.779 413.23 185.779 410.928C185.779 408.526 186.615 406.501 188.286 404.852C189.957 403.191 191.988 402.361 194.379 402.361C196.426 402.361 198.103 402.97 199.409 404.188C200.726 405.394 201.385 406.96 201.385 408.886C201.385 409.185 201.363 409.66 201.318 410.313L201.302 410.413L200.837 411.094L190.627 411.376C190.704 412.383 191.125 413.202 191.889 413.833C192.652 414.453 193.615 414.763 194.777 414.763C195.596 414.763 196.504 414.586 197.5 414.231C198.507 413.877 199.564 413.352 200.671 412.654ZM209.586 418H204.39V403.042H209.188V405.549C209.984 404.564 210.831 403.833 211.728 403.357C212.624 402.87 213.598 402.627 214.649 402.627C216.232 402.627 217.433 403.081 218.252 403.988C219.071 404.896 219.48 406.224 219.48 407.973V418H214.317V409.434C214.317 408.648 214.157 408.056 213.836 407.657C213.515 407.259 213.039 407.06 212.408 407.06C211.501 407.06 210.803 407.364 210.316 407.973C209.829 408.581 209.586 409.467 209.586 410.629V418ZM227.632 410.513C227.632 411.785 227.903 412.815 228.445 413.601C228.999 414.375 229.701 414.763 230.554 414.763C231.406 414.763 232.103 414.37 232.646 413.584C233.199 412.798 233.476 411.774 233.476 410.513C233.476 409.262 233.199 408.244 232.646 407.458C232.103 406.661 231.406 406.263 230.554 406.263C229.701 406.263 228.999 406.656 228.445 407.441C227.903 408.227 227.632 409.251 227.632 410.513ZM222.319 410.513C222.319 408.133 223.094 406.174 224.644 404.636C226.204 403.097 228.174 402.328 230.554 402.328C232.944 402.328 234.92 403.097 236.48 404.636C238.041 406.174 238.821 408.133 238.821 410.513C238.821 412.892 238.041 414.857 236.48 416.406C234.92 417.945 232.944 418.714 230.554 418.714C228.185 418.714 226.221 417.945 224.66 416.406C223.1 414.857 222.319 412.892 222.319 410.513ZM247.105 418H241.876V403.042H246.74L246.84 405.665C247.438 404.614 248.135 403.85 248.932 403.374C249.74 402.898 250.741 402.66 251.937 402.66H252.352V408.238H251.804H251.223C249.596 408.238 248.5 408.426 247.936 408.803C247.382 409.168 247.105 410.059 247.105 411.476V418Z" fill="white"/>
</svg>
